#!OML:ASF H:\Terrain\Patient Classification 1\Terrain2\Thursday\justin.ASF
:FULLY-SPECIFIED
:DEGREES
3835
root -13.5019 17.1787 -0.827775 -450.898 86.3169 -91.9066
lowerback 5.96742 0.681734 2.29246
upperback 2.5466 1.1195 1.61757
thorax -0.713123 0.594337 0.302942
lowerneck -12.969 -2.48413 -6.97526
upperneck 35.7043 -1.19117 2.63886
head 14.5605 -0.627102 2.25318
rclavicle -3.00662e-015 -1.19271e-015
rhumerus -32.7145 -6.12272 -82.8454
rradius 40.9126
rwrist -13.4083
rhand -19.2754 12.728
rfingers 7.12502
rthumb 7.03936 -17.135
lclavicle -3.00662e-015 -1.19271e-015
lhumerus -37.4604 9.62029 80.2242
lradius 28.7436
lwrist 2.7137
lhand -18.1689 22.0985
lfingers 7.12502
lthumb 8.10729 51.923
rfemur -15.9333 -4.85653 23.6744
rtibia 43.6934
rfoot -24.5577 1.90735
rtoes 11.0687
lfemur -14.556 0.186366 -17.0509
ltibia 36.4369
lfoot -17.707 -15.5353
ltoes 18.8523
3836
root -13.4753 17.1846 -0.808544 -451.143 86.1036 -92.0666
lowerback 5.79051 0.786469 2.63176
upperback 2.64245 1.26961 1.58945
thorax -0.506173 0.675017 0.0789103
lowerneck -13.1985 -2.58604 -7.5455
upperneck 35.9173 -1.27961 3.02631
head 14.7323 -0.68939 2.50859
rclavicle -3.54085e-015 1.09332e-015
rhumerus -32.7518 -6.01746 -82.9766
rradius 41.4574
rwrist -13.1497
rhand -18.9366 12.906
rfingers 7.12502
rthumb 7.36639 -16.9458
lclavicle -3.54085e-015 1.09332e-015
lhumerus -37.2657 9.32062 80.256
lradius 28.4517
lwrist 2.78048
lhand -17.8938 21.6829
lfingers 7.12502
lthumb 8.37282 51.497
rfemur -15.5484 -4.74294 23.9662
rtibia 43.4531
rfoot -24.4015 1.54947
rtoes 14.4995
lfemur -14.3931 0.195571 -16.7039
ltibia 36.4923
lfoot -17.6633 -15.9946
ltoes 19.6567
3837
root -13.4515 17.1608 -0.777986 -451.508 86.0469 -92.3078
lowerback 6.16962 0.77928 2.24851
upperback 2.35183 1.25985 1.77374
thorax -1.02877 0.659504 0.473462
lowerneck -13.2847 -2.60928 -8.2552
upperneck 36.5916 -1.11417 3.2825
head 15.0803 -0.675217 2.79499
rclavicle 1.06847e-014 9.44227e-015
rhumerus -33.2184 -5.33802 -83.0059
rradius 41.8282
rwrist -13.1805
rhand -19.1004 13.2697
rfingers 7.12502
rthumb 7.20827 -16.5875
lclavicle 1.06847e-014 9.44227e-015
lhumerus -37.8714 9.39971 80.1413
lradius 28.3714
lwrist 2.78544
lhand -17.0251 21.464
lfingers 7.12502
lthumb 9.21117 51.2428
rfemur -15.0735 -4.88534 24.2608
rtibia 43.112
rfoot -24.411 0.304431
rtoes 12.4424
lfemur -14.3435 0.552662 -16.5218
ltibia 36.7311
lfoot -17.9346 -16.3108
ltoes 18.2209
3838
root -13.4271 17.1591 -0.753509 -449.461 86.0134 -90.1098
lowerback 6.23682 0.778856 2.04693
upperback 2.35971 1.2511 1.82795
thorax -1.0637 0.654318 0.641609
lowerneck -13.571 -2.56964 -8.57506
upperneck 37.0693 -0.928025 3.39374
head 15.3743 -0.626872 2.95031
rclavicle -1.23371e-014 -6.65929e-015
rhumerus -33.1434 -4.83051 -83.3108
rradius 42.0271
rwrist -13.3027
rhand -19.8662 13.8083
rfingers 7.12502
rthumb 6.46895 -16.0729
lclavicle -1.23371e-014 -6.65929e-015
lhumerus -38.08 9.46217 79.9437
lradius 28.3734
lwrist 2.69961
lhand -16.7229 21.5245
lfingers 7.12502
lthumb 9.50269 51.2902
rfemur -14.5771 -4.37557 24.4439
rtibia 42.727
rfoot -24.3889 0.399298
rtoes 14.784
lfemur -14.172 0.168184 -16.4298
ltibia 37.0233
lfoot -18.3215 -15.6764
ltoes 16.8741
3839
root -13.4042 17.155 -0.74345 -447.439 85.5686 -88.0532
lowerback 6.1436 0.822236 2.67717
upperback 2.37691 1.34345 1.82602
thorax -0.978967 0.704338 0.282376
lowerneck -13.583 -2.55357 -8.49508
upperneck 37.2278 -0.901412 3.38
head 15.452 -0.60493 2.94168
rclavicle 4.4975e-015 1.85864e-014
rhumerus -33.0693 -4.66499 -83.641
rradius 42.3455
rwrist -13.732
rhand -20.1197 13.658
rfingers 7.12502
rthumb 6.22424 -16.2306
lclavicle 4.4975e-015 1.85864e-014
lhumerus -38.0799 9.41494 79.7842
lradius 28.1751
lwrist 2.33474
lhand -17.034 21.6304
lfingers 7.12502
lthumb 9.20256 51.4096
rfemur -14.1189 -4.3544 25.0473
rtibia 42.2293
rfoot -24.2793 0.815407
rtoes 15.6777
lfemur -14.2006 -0.365239 -15.9112
ltibia 37.4721
lfoot -18.6484 -15.0788
ltoes 16.7372
3840
root -13.3832 17.1605 -0.730375 -446.805 85.4191 -87.4832
lowerback 6.04819 0.883669 2.97761
upperback 2.33366 1.43842 1.80553
thorax -0.960851 0.752489 0.0882885
lowerneck -13.5182 -2.52009 -8.37211
upperneck 37.316 -0.856647 3.32762
head 15.4744 -0.572538 2.90882
rclavicle 4.07509e-015 6.06293e-015
rhumerus -33.0215 -4.5796 -83.8355
rradius 42.6797
rwrist -14.4087
rhand -20.3664 13.1934
rfingers 7.12502
rthumb 5.98612 -16.702
lclavicle 4.07509e-015 6.06293e-015
lhumerus -38.0747 9.38207 79.7551
lradius 27.9599
lwrist 2.16937
lhand -17.0895 21.8299
lfingers 7.12502
lthumb 9.14899 51.6114
rfemur -13.8581 -5.0306 25.3229
rtibia 41.768
rfoot -24.1021 1.41808
rtoes 15.6857
lfemur -14.3514 -0.56272 -15.6414
ltibia 37.8654
lfoot -18.6184 -15.2584
ltoes 18.3712
